<svg width="512" height="512" version="1.1" xmlns="http://www.w3.org/2000/svg" desc="Created with imagetracer.js version 1.2.6" ><path fill="rgb(104,79,60)" stroke="rgb(104,79,60)" stroke-width="1" opacity="0.9921568627450981" d="M 256 3 L 261.5 5 L 299 42.5 L 344 88.5 L 344 172 L 341 170.5 L 326.5 155 L 256 85.5 L 256 3 Z " /><path fill="rgb(104,79,60)" stroke="rgb(104,79,60)" stroke-width="1" opacity="0.9921568627450981" d="M 254.5 174 L 256 174.5 L 256 255.5 L 208.5 304 L 169.5 342 L 169 258.5 L 250.5 176 L 254.5 174 Z " /><path fill="rgb(0,0,0)" stroke="rgb(0,0,0)" stroke-width="1" opacity="0" d="M 0 0 L 511.5 0 L 512 0.5 L 512 53.5 L 508 50.5 L 507.5 48 L 396 48 L 395 54.5 L 396 60 L 400 60 L 400 64 L 404 64 L 404 68 L 408 68 L 408 72 L 412 72 L 412 76 L 416 76 L 416 80 Q 422 78 420 84 L 424.5 84 Q 429.3 85.6 428 92 L 432 92 L 432 96 L 436 96 L 436 100 L 440 100 L 440 104 L 444 104 L 444 108 L 448 108 L 448 112 L 452 112 L 452 116 L 456 116 L 456 120 L 460 120 Q 458 126 464 124 L 464 128 L 468.5 128 Q 473.2 129.6 472 136 L 476 136 L 476 140 L 480 140 L 480 144 L 484 144 L 484 148 Q 490 146 488 152 L 492.5 152 Q 497.3 153.6 496 160 L 500 160 L 500 164 L 504 164 Q 501.8 169.6 507.5 168 L 511.5 165 L 512 512 L 0 512 L 0 168 L 4 168 Q 2.9 165.3 5.5 166 Q 7 162.7 12 164 Q 10 158 16 160 L 16 155.5 L 43.5 128 L 48 128 L 48 124 L 52 124 L 52 120 L 56 120 L 56 116 L 60 116 Q 58 110 64 112 L 64 107.5 L 83.5 88 L 88 88 L 88 84 L 92 84 L 92 80 L 96 80 L 96 76 L 100 76 L 100 72 L 104 72 L 104 68 L 108 68 Q 106 62 112 64 L 112 60 L 116 60 L 116 55.5 L 117 52.5 L 116 48 L 8.5 48 L 8 50 L 5.5 50 L 1 53.5 L 0.5 55 L 0 0 Z M 253 3 L 252 4 Q 246 2 248 8 L 244 8 L 244 12 L 240 12 L 240 16 L 236 16 L 236 20 L 232 20 L 232 24 L 228 24 L 228 28 L 224 28 L 224 32 L 220 32 L 220 36 L 216 36 L 216 40 L 212 40 L 212 44 L 204 52 Q 198 50 200 56 L 196 56 L 196 60 L 192 60 L 192 64 L 188 64 L 188 68 L 184 68 L 184 72 L 180 72 L 180 76 L 176 76 L 176 80 L 172 80 L 172 84 L 152 104 Q 146 102 148 108 L 144 108 L 144 112 L 140 112 L 140 116 L 136 116 L 136 120 L 132 120 L 132 124 L 128 124 L 128 128 L 100 156 Q 94 154 96 160 L 92 160 L 92 164 L 88 164 L 88 168 L 84 168 L 84 172 L 52 204 Q 46 202 48 208 L 44 208 L 44 212 L 4 252 L 4 256 L 8 257 L 84 257 L 88 255 L 128 215 L 129 216 Q 134 218 132 212 L 136 212 L 136 207 L 171 172 L 176 172 Q 174 166 180 168 L 180 164 L 184 164 L 184 160 L 188 160 L 188 155 L 215 128 L 220 128 Q 218 122 224 124 L 224 120 L 228 120 L 228 116 L 232 116 L 232 112 L 236 112 L 236 105 L 238 105 L 255 88 L 259 88 L 260 92 L 264 94 Q 263 97 267 96 L 268 100 L 272 102 Q 271 105 275 104 L 300 130 L 300 132 L 304 134 Q 303 137 307 136 L 308 140 L 312 142 Q 311 145 315 144 L 316 148 L 320 150 Q 319 153 323 152 L 324 156 L 327 156 L 340 170 Q 339 173 343 172 L 344 176 L 348 178 Q 347 181 351 180 L 352 184 L 356 186 Q 355 189 359 188 L 360 192 L 364 194 Q 363 197 366 196 L 366 200 L 369 200 L 368 203 L 368 204 L 372 204 L 372 208 L 379 208 L 384 214 L 384 220 Q 390 218 388 224 L 392 224 L 392 228 L 396 228 L 396 232 L 400 232 L 400 236 L 404 236 L 404 240 L 408 240 L 408 244 L 412 244 L 412 248 L 416 248 L 416 252 L 420 252 L 420 256 L 424 256 L 425 254 L 429 257 L 505 257 L 508 256 L 508 248 Q 502 250 504 244 L 500 244 L 500 240 L 496 240 L 496 236 L 492 236 L 492 232 L 488 232 L 488 228 L 484 228 L 484 224 L 480 224 L 480 220 L 476 220 L 476 216 L 472 216 L 472 212 L 469 212 L 460 204 Q 462 198 456 200 L 456 196 L 452 196 L 452 192 L 448 192 L 448 188 L 444 188 L 444 184 L 440 184 L 440 180 L 436 180 L 436 176 L 432 176 L 432 172 L 428 172 L 428 168 L 425 168 L 412 156 Q 414 150 408 152 L 408 148 L 404 148 L 404 144 L 400 144 L 400 140 L 396 140 L 396 136 L 392 136 L 392 132 L 388 132 L 388 128 L 385 128 L 360 104 Q 362 98 356 100 L 356 96 L 352 96 L 352 92 L 348 92 L 348 88 L 345 88 L 312 56 Q 314 50 308 52 L 308 48 L 304 48 L 304 44 L 301 44 L 260 3 L 253 3 Z M 254 174 L 223 204 L 220 204 L 219 208 Q 215 207 216 211 L 212 212 L 212 215 L 123 304 Q 119 303 120 307 L 43 384 L 40 384 L 40 387 L 4 423 L 4 425 L 9 428 L 88 428 L 88 424 L 92 424 L 92 420 L 96 420 L 96 416 L 100 416 L 100 412 L 104 412 L 104 408 L 108 408 L 108 405 L 129 384 Q 134 386 132 380 L 136 380 L 136 376 L 140 376 L 140 372 L 144 372 L 144 368 Q 147 369 146 367 L 257 257 L 300 301 L 300 304 L 304 304 L 344 345 Q 342 350 348 348 L 348 352 L 352 352 L 352 356 L 356 356 L 384 385 Q 382 390 388 388 L 388 392 L 392 392 L 392 396 L 396 396 L 396 400 L 400 400 L 400 404 L 404 404 L 429 428 L 508 428 L 508 416 Q 502 418 504 412 L 500 412 L 500 408 L 494 408 L 470 385 L 472 384 Q 474 378 468 380 L 468 376 L 464 376 L 464 372 L 460 372 L 460 368 L 456 368 L 456 364 L 452 364 L 452 360 L 448 360 L 448 356 L 442 356 L 428 343 L 428 336 Q 422 338 424 332 L 420 332 L 420 328 L 416 328 L 416 324 L 412 324 L 412 320 L 408 320 L 408 316 L 404 316 L 404 312 L 400 312 L 400 308 L 396 308 L 396 304 L 392 304 L 392 306 L 384 299 L 384 292 L 380 292 L 380 288 L 376 288 Q 378 282 372 284 L 372 280 L 368 280 L 368 276 L 364 276 L 364 272 L 360 272 L 360 268 L 356 268 L 356 264 L 352 264 L 352 260 L 348 260 L 348 256 L 344 256 L 344 252 L 340 252 L 340 248 L 336 248 L 336 244 L 332 244 L 332 240 L 328 240 L 328 236 L 324 236 L 324 232 L 320 232 L 320 228 L 316 228 L 316 224 L 312 224 L 312 220 L 308 220 L 308 216 L 304 216 L 304 212 L 299 212 L 290 205 L 292 204 Q 294 198 288 200 L 288 196 L 284 196 L 284 192 L 280 192 L 280 188 L 276 188 L 276 184 L 272 184 L 272 180 L 268 180 L 268 176 Q 261 178 260 174 L 254 174 Z M 252 344 L 252 346 L 241 356 L 236 356 Q 238 362 232 360 L 232 364 L 228 364 L 228 368 L 224 368 L 224 372 L 220 372 L 220 376 L 216 376 L 216 380 L 212 380 L 212 385 L 189 408 L 184 408 Q 186 414 180 412 L 180 416 L 176 416 Q 178 422 174 424 L 172 425 L 172 432 L 176 432 L 200 457 Q 198 462 204 460 L 204 464 L 208 464 L 208 468 L 212 468 L 212 472 L 216 472 L 253 509 L 260 509 L 337 432 L 340 432 Q 342 427 338 428 L 337 422 L 262 346 L 260 346 L 260 344 L 252 344 Z " /><path fill="rgb(135,111,79)" stroke="rgb(135,111,79)" stroke-width="1" opacity="0.7294117647058823" d="M 5.5 50 L 8 50.5 L 4.5 52 L 5.5 50 Z " /><path fill="rgb(135,111,79)" stroke="rgb(135,111,79)" stroke-width="1" opacity="0.7294117647058823" d="M 113.5 50 L 116 51.5 L 114.5 51 L 113.5 50 Z " /><path fill="rgb(135,111,79)" stroke="rgb(135,111,79)" stroke-width="1" opacity="0.7294117647058823" d="M 397.5 50 L 399 50.5 L 396.5 52 L 397.5 50 Z " /><path fill="rgb(135,111,79)" stroke="rgb(135,111,79)" stroke-width="1" opacity="0.7294117647058823" d="M 504.5 50 L 508 51.5 L 506.5 51 Q 503.5 51.5 504.5 50 Z " /><path fill="rgb(135,111,79)" stroke="rgb(135,111,79)" stroke-width="1" opacity="0.7294117647058823" d="M 509.5 52 L 510.5 54 L 509.5 52 Z " /><path fill="rgb(135,111,79)" stroke="rgb(135,111,79)" stroke-width="1" opacity="0.7294117647058823" d="M 310.5 54 L 341.5 86 L 310.5 54 Z " /><path fill="rgb(135,111,79)" stroke="rgb(135,111,79)" stroke-width="1" opacity="0.7294117647058823" d="M 84.5 86 L 66.5 105 L 84.5 86 Z " /><path fill="rgb(135,111,79)" stroke="rgb(135,111,79)" stroke-width="1" opacity="0.7294117647058823" d="M 360.5 104 L 426.5 171 L 360.5 104 Z " /><path fill="rgb(135,111,79)" stroke="rgb(135,111,79)" stroke-width="1" opacity="0.7294117647058823" d="M 42.5 128 L 16.5 155 L 42.5 128 Z " /><path fill="rgb(135,111,79)" stroke="rgb(135,111,79)" stroke-width="1" opacity="0.7294117647058823" d="M 326.5 155 L 340.5 170 L 326.5 155 Z " /><path fill="rgb(135,111,79)" stroke="rgb(135,111,79)" stroke-width="1" opacity="0.7294117647058823" d="M 0.5 164 L 1.5 166 L 0.5 164 Z " /><path fill="rgb(135,111,79)" stroke="rgb(135,111,79)" stroke-width="1" opacity="0.7294117647058823" d="M 511.5 164 L 510.5 166 L 511.5 164 Z " /><path fill="rgb(135,111,79)" stroke="rgb(135,111,79)" stroke-width="1" opacity="0.7294117647058823" d="M 343.5 172 L 425.5 255 L 343.5 172 Z " /><path fill="rgb(135,111,79)" stroke="rgb(135,111,79)" stroke-width="1" opacity="0.7294117647058823" d="M 207.5 219 L 74.5 353 L 207.5 219 Z " /><path fill="rgb(135,111,79)" stroke="rgb(135,111,79)" stroke-width="1" opacity="0.7294117647058823" d="M 207.5 304 L 87.5 425 L 207.5 304 Z " /><path fill="rgb(135,111,79)" stroke="rgb(135,111,79)" stroke-width="1" opacity="0.7294117647058823" d="M 251.5 346 L 250.5 348 L 251.5 346 Z " /><path fill="rgb(135,111,79)" stroke="rgb(135,111,79)" stroke-width="1" opacity="0.7294117647058823" d="M 247.5 350 L 246.5 352 L 247.5 350 Z " /><path fill="rgb(135,111,79)" stroke="rgb(135,111,79)" stroke-width="1" opacity="0.7294117647058823" d="M 243.5 354 L 242.5 356 L 243.5 354 Z " /><path fill="rgb(135,111,79)" stroke="rgb(135,111,79)" stroke-width="1" opacity="0.7294117647058823" d="M 69.5 357 L 43.5 384 L 69.5 357 Z " /><path fill="rgb(135,111,79)" stroke="rgb(135,111,79)" stroke-width="1" opacity="0.7294117647058823" d="M 211.5 386 L 210.5 388 L 211.5 386 Z " /><path fill="rgb(135,111,79)" stroke="rgb(135,111,79)" stroke-width="1" opacity="0.7294117647058823" d="M 207.5 390 L 206.5 392 L 207.5 390 Z " /><path fill="rgb(135,111,79)" stroke="rgb(135,111,79)" stroke-width="1" opacity="0.7294117647058823" d="M 203.5 394 L 202.5 396 L 203.5 394 Z " /><path fill="rgb(135,111,79)" stroke="rgb(135,111,79)" stroke-width="1" opacity="0.7294117647058823" d="M 199.5 398 L 198.5 400 L 199.5 398 Z " /><path fill="rgb(135,111,79)" stroke="rgb(135,111,79)" stroke-width="1" opacity="0.7294117647058823" d="M 195.5 402 L 194.5 404 L 195.5 402 Z " /><path fill="rgb(135,111,79)" stroke="rgb(135,111,79)" stroke-width="1" opacity="0.7294117647058823" d="M 191.5 406 L 190.5 408 L 191.5 406 Z " /><path fill="rgb(135,111,79)" stroke="rgb(135,111,79)" stroke-width="1" opacity="0.7294117647058823" d="M 174.5 424 L 175 428.5 L 174 428.5 L 174.5 424 Z " /><path fill="rgb(135,111,79)" stroke="rgb(135,111,79)" stroke-width="1" opacity="0.7294117647058823" d="M 337.5 424 L 338 429.5 L 337 429.5 L 337.5 424 Z " /><path fill="rgb(135,111,79)" stroke="rgb(135,111,79)" stroke-width="1" opacity="0.7294117647058823" d="M 44.5 426 L 84 426.5 L 44.5 427 L 44.5 426 Z " /><path fill="rgb(135,111,79)" stroke="rgb(135,111,79)" stroke-width="1" opacity="0.7294117647058823" d="M 336.5 431 L 260.5 508 L 253.5 509 L 252.5 507 Q 253.7 509.2 258.5 508 L 336.5 431 Z " /><path fill="rgb(135,111,79)" stroke="rgb(135,111,79)" stroke-width="1" opacity="0.7294117647058823" d="M 176.5 432 L 250.5 507 L 176.5 432 Z " /><path fill="rgb(190,156,113)" stroke="rgb(190,156,113)" stroke-width="1" opacity="0.996078431372549" d="M 254.5 3 L 256 3.5 L 256 85.5 L 86.5 255 L 84.5 256 L 6.5 256 Q 4.3 255.3 5 251.5 L 254.5 3 Z " /><path fill="rgb(190,156,113)" stroke="rgb(190,156,113)" stroke-width="1" opacity="0.996078431372549" d="M 256.5 174 L 261.5 176 L 507 421.5 Q 508.9 426.9 505.5 426 L 504.5 427 L 429.5 427 L 426.5 426 L 256 255.5 L 256.5 174 Z " /><path fill="rgb(190,156,113)" stroke="rgb(190,156,113)" stroke-width="1" opacity="0.996078431372549" d="M 444.5 189 L 507 251.5 L 507 254.5 L 505.5 256 L 444 256 L 444.5 189 Z " /><path fill="rgb(190,156,113)" stroke="rgb(190,156,113)" stroke-width="1" opacity="0.996078431372549" d="M 68.5 359 L 68 360.5 L 68 426 L 44.5 426 L 43.5 427 L 7.5 427 Q 4.3 426.3 5 421.5 L 68.5 359 Z " /><path fill="rgb(127,114,70)" stroke="rgb(127,114,70)" stroke-width="1" opacity="0.15294117647058825" d="M 258.5 3 L 261 4.5 L 259.5 4 L 258.5 3 Z " /><path fill="rgb(127,114,70)" stroke="rgb(127,114,70)" stroke-width="1" opacity="0.15294117647058825" d="M 299.5 43 L 304 44 L 304 48 L 308 48 L 308 52 Q 313.2 49.9 312 54.5 L 310.5 54 L 299.5 43 Z " /><path fill="rgb(127,114,70)" stroke="rgb(127,114,70)" stroke-width="1" opacity="0.15294117647058825" d="M 8 48 L 111.5 48 L 112 50 L 8.5 50 L 8 48 Z " /><path fill="rgb(127,114,70)" stroke="rgb(127,114,70)" stroke-width="1" opacity="0.15294117647058825" d="M 400 48 L 503.5 48 L 504 50 L 400.5 50 L 400 48 Z " /><path fill="rgb(127,114,70)" stroke="rgb(127,114,70)" stroke-width="1" opacity="0.15294117647058825" d="M 116.5 52 L 117 54.5 L 85 85.5 L 116 54.5 L 116.5 52 Z " /><path fill="rgb(127,114,70)" stroke="rgb(127,114,70)" stroke-width="1" opacity="0.15294117647058825" d="M 395.5 52 L 396 54.5 L 507 165.5 L 395 54.5 L 395.5 52 Z " /><path fill="rgb(127,114,70)" stroke="rgb(127,114,70)" stroke-width="1" opacity="0.15294117647058825" d="M 256.5 86 L 257.5 88 Q 254.7 88.7 256.5 86 Z " /><path fill="rgb(127,114,70)" stroke="rgb(127,114,70)" stroke-width="1" opacity="0.15294117647058825" d="M 342.5 86 Q 343.8 89 348 88 L 348 92 L 352 92 L 352 96 L 356 96 L 356 100 Q 361.6 97.8 360 103.5 L 342.5 86 Z " /><path fill="rgb(127,114,70)" stroke="rgb(127,114,70)" stroke-width="1" opacity="0.15294117647058825" d="M 260.5 90 L 261.5 92 Q 258.7 92.7 260.5 90 Z " /><path fill="rgb(127,114,70)" stroke="rgb(127,114,70)" stroke-width="1" opacity="0.15294117647058825" d="M 264.5 94 L 265.5 96 Q 262.7 96.7 264.5 94 Z " /><path fill="rgb(127,114,70)" stroke="rgb(127,114,70)" stroke-width="1" opacity="0.15294117647058825" d="M 268.5 98 L 269.5 100 Q 266.7 100.7 268.5 98 Z " /><path fill="rgb(127,114,70)" stroke="rgb(127,114,70)" stroke-width="1" opacity="0.15294117647058825" d="M 272.5 102 L 273.5 104 Q 270.7 104.7 272.5 102 Z " /><path fill="rgb(127,114,70)" stroke="rgb(127,114,70)" stroke-width="1" opacity="0.15294117647058825" d="M 65.5 105 L 43.5 128 L 65.5 105 Z " /><path fill="rgb(127,114,70)" stroke="rgb(127,114,70)" stroke-width="1" opacity="0.15294117647058825" d="M 385.5 128 Q 389.3 126.8 388 130.5 L 385.5 128 Z " /><path fill="rgb(127,114,70)" stroke="rgb(127,114,70)" stroke-width="1" opacity="0.15294117647058825" d="M 300.5 130 L 301.5 132 Q 298.7 132.7 300.5 130 Z " /><path fill="rgb(127,114,70)" stroke="rgb(127,114,70)" stroke-width="1" opacity="0.15294117647058825" d="M 389.5 132 Q 393.3 130.8 392 134.5 L 389.5 132 Z " /><path fill="rgb(127,114,70)" stroke="rgb(127,114,70)" stroke-width="1" opacity="0.15294117647058825" d="M 304.5 134 L 305.5 136 Q 302.7 136.7 304.5 134 Z " /><path fill="rgb(127,114,70)" stroke="rgb(127,114,70)" stroke-width="1" opacity="0.15294117647058825" d="M 393.5 136 Q 397.3 134.8 396 138.5 L 393.5 136 Z " /><path fill="rgb(127,114,70)" stroke="rgb(127,114,70)" stroke-width="1" opacity="0.15294117647058825" d="M 308.5 138 L 309.5 140 Q 306.7 140.7 308.5 138 Z " /><path fill="rgb(127,114,70)" stroke="rgb(127,114,70)" stroke-width="1" opacity="0.15294117647058825" d="M 397.5 140 Q 401.3 138.8 400 142.5 L 397.5 140 Z " /><path fill="rgb(127,114,70)" stroke="rgb(127,114,70)" stroke-width="1" opacity="0.15294117647058825" d="M 312.5 142 L 313.5 144 Q 310.7 144.7 312.5 142 Z " /><path fill="rgb(127,114,70)" stroke="rgb(127,114,70)" stroke-width="1" opacity="0.15294117647058825" d="M 401.5 144 Q 405.3 142.8 404 146.5 L 401.5 144 Z " /><path fill="rgb(127,114,70)" stroke="rgb(127,114,70)" stroke-width="1" opacity="0.15294117647058825" d="M 316.5 146 L 317.5 148 Q 314.7 148.7 316.5 146 Z " /><path fill="rgb(127,114,70)" stroke="rgb(127,114,70)" stroke-width="1" opacity="0.15294117647058825" d="M 405.5 148 Q 409.3 146.8 408 150.5 L 405.5 148 Z " /><path fill="rgb(127,114,70)" stroke="rgb(127,114,70)" stroke-width="1" opacity="0.15294117647058825" d="M 320.5 150 L 321.5 152 Q 318.7 152.7 320.5 150 Z " /><path fill="rgb(127,114,70)" stroke="rgb(127,114,70)" stroke-width="1" opacity="0.15294117647058825" d="M 409.5 152 Q 413.3 150.8 412 154.5 L 409.5 152 Z " /><path fill="rgb(127,114,70)" stroke="rgb(127,114,70)" stroke-width="1" opacity="0.15294117647058825" d="M 324.5 154 L 325.5 156 Q 322.7 156.7 324.5 154 Z " /><path fill="rgb(127,114,70)" stroke="rgb(127,114,70)" stroke-width="1" opacity="0.15294117647058825" d="M 15.5 155 L 5.5 166 L 15.5 155 Z " /><path fill="rgb(127,114,70)" stroke="rgb(127,114,70)" stroke-width="1" opacity="0.15294117647058825" d="M 340.5 170 L 341.5 172 Q 338.7 172.7 340.5 170 Z " /><path fill="rgb(127,114,70)" stroke="rgb(127,114,70)" stroke-width="1" opacity="0.15294117647058825" d="M 429.5 172 Q 433.3 170.8 432 174.5 L 429.5 172 Z " /><path fill="rgb(127,114,70)" stroke="rgb(127,114,70)" stroke-width="1" opacity="0.15294117647058825" d="M 344.5 174 L 345.5 176 Q 342.7 176.7 344.5 174 Z " /><path fill="rgb(127,114,70)" stroke="rgb(127,114,70)" stroke-width="1" opacity="0.15294117647058825" d="M 433.5 176 Q 437.3 174.8 436 178.5 L 433.5 176 Z " /><path fill="rgb(127,114,70)" stroke="rgb(127,114,70)" stroke-width="1" opacity="0.15294117647058825" d="M 348.5 178 L 349.5 180 Q 346.7 180.7 348.5 178 Z " /><path fill="rgb(127,114,70)" stroke="rgb(127,114,70)" stroke-width="1" opacity="0.15294117647058825" d="M 352.5 182 L 353.5 184 Q 350.7 184.7 352.5 182 Z " /><path fill="rgb(127,114,70)" stroke="rgb(127,114,70)" stroke-width="1" opacity="0.15294117647058825" d="M 356.5 186 L 357.5 188 Q 354.7 188.7 356.5 186 Z " /><path fill="rgb(127,114,70)" stroke="rgb(127,114,70)" stroke-width="1" opacity="0.15294117647058825" d="M 360.5 190 L 361.5 192 Q 358.7 192.7 360.5 190 Z " /><path fill="rgb(127,114,70)" stroke="rgb(127,114,70)" stroke-width="1" opacity="0.15294117647058825" d="M 364.5 194 L 365.5 196 Q 362.7 196.7 364.5 194 Z " /><path fill="rgb(127,114,70)" stroke="rgb(127,114,70)" stroke-width="1" opacity="0.15294117647058825" d="M 368.5 198 L 369.5 200 Q 366.7 200.7 368.5 198 Z " /><path fill="rgb(127,114,70)" stroke="rgb(127,114,70)" stroke-width="1" opacity="0.15294117647058825" d="M 372.5 202 L 373.5 204 Q 370.7 204.7 372.5 202 Z " /><path fill="rgb(127,114,70)" stroke="rgb(127,114,70)" stroke-width="1" opacity="0.15294117647058825" d="M 220 204 L 222 204.5 L 220 205.5 L 220 204 Z " /><path fill="rgb(127,114,70)" stroke="rgb(127,114,70)" stroke-width="1" opacity="0.15294117647058825" d="M 216 208 L 218 208.5 L 216 209.5 L 216 208 Z " /><path fill="rgb(127,114,70)" stroke="rgb(127,114,70)" stroke-width="1" opacity="0.15294117647058825" d="M 212 212 L 214 212.5 L 212 213.5 L 212 212 Z " /><path fill="rgb(127,114,70)" stroke="rgb(127,114,70)" stroke-width="1" opacity="0.15294117647058825" d="M 384.5 214 L 385.5 216 Q 382.7 216.7 384.5 214 Z " /><path fill="rgb(127,114,70)" stroke="rgb(127,114,70)" stroke-width="1" opacity="0.15294117647058825" d="M 388.5 218 L 389.5 220 Q 386.7 220.7 388.5 218 Z " /><path fill="rgb(127,114,70)" stroke="rgb(127,114,70)" stroke-width="1" opacity="0.15294117647058825" d="M 392.5 222 L 393.5 224 Q 390.7 224.7 392.5 222 Z " /><path fill="rgb(127,114,70)" stroke="rgb(127,114,70)" stroke-width="1" opacity="0.15294117647058825" d="M 396.5 226 L 397.5 228 Q 394.7 228.7 396.5 226 Z " /><path fill="rgb(127,114,70)" stroke="rgb(127,114,70)" stroke-width="1" opacity="0.15294117647058825" d="M 400.5 230 L 401.5 232 Q 398.7 232.7 400.5 230 Z " /><path fill="rgb(127,114,70)" stroke="rgb(127,114,70)" stroke-width="1" opacity="0.15294117647058825" d="M 428.5 256 L 445 256.5 L 428.5 257 L 428.5 256 Z " /><path fill="rgb(127,114,70)" stroke="rgb(127,114,70)" stroke-width="1" opacity="0.15294117647058825" d="M 256.5 344 Q 260.9 342.5 260 345.5 L 258.5 345 Q 255.5 345.5 256.5 344 Z " /><path fill="rgb(127,114,70)" stroke="rgb(127,114,70)" stroke-width="1" opacity="0.15294117647058825" d="M 261.5 346 L 336.5 422 L 261.5 346 Z " /><path fill="rgb(127,114,70)" stroke="rgb(127,114,70)" stroke-width="1" opacity="0.15294117647058825" d="M 249.5 347 L 176.5 421 L 249.5 347 Z " /><path fill="rgb(127,114,70)" stroke="rgb(127,114,70)" stroke-width="1" opacity="0.15294117647058825" d="M 204.5 461 L 206.5 464 Q 202.1 465.1 204.5 461 Z " /><path fill="rgb(127,114,70)" stroke="rgb(127,114,70)" stroke-width="1" opacity="0.15294117647058825" d="M 208.5 465 L 210.5 468 Q 206.1 469.1 208.5 465 Z " /><path fill="rgb(127,114,70)" stroke="rgb(127,114,70)" stroke-width="1" opacity="0.15294117647058825" d="M 251.5 507 L 252.5 509 L 251.5 507 Z " /><path fill="rgb(168,145,116)" stroke="rgb(168,145,116)" stroke-width="1" opacity="0.30980392156862746" d="M 251.5 4 L 5.5 251 L 251.5 4 Z " /><path fill="rgb(168,145,116)" stroke="rgb(168,145,116)" stroke-width="1" opacity="0.30980392156862746" d="M 427.5 171 L 506.5 251 L 427.5 171 Z " /><path fill="rgb(168,145,116)" stroke="rgb(168,145,116)" stroke-width="1" opacity="0.30980392156862746" d="M 256.5 256 L 425.5 426 L 256.5 256 Z " /><path fill="rgb(168,145,116)" stroke="rgb(168,145,116)" stroke-width="1" opacity="0.30980392156862746" d="M 73.5 353 L 72.5 355 L 73.5 353 Z " /><path fill="rgb(168,145,116)" stroke="rgb(168,145,116)" stroke-width="1" opacity="0.30980392156862746" d="M 42.5 384 L 19.5 408 L 42.5 384 Z " /><path fill="rgb(168,145,116)" stroke="rgb(168,145,116)" stroke-width="1" opacity="0.30980392156862746" d="M 4.5 422 L 7 426.5 L 4 424.5 L 4.5 422 Z " /><path fill="rgb(168,145,116)" stroke="rgb(168,145,116)" stroke-width="1" opacity="0.30980392156862746" d="M 507.5 422 L 508 424.5 L 507 424.5 L 507.5 422 Z " /><path fill="rgb(201,144,118)" stroke="rgb(201,144,118)" stroke-width="1" opacity="0.047058823529411764" d="M 244 8 L 247 8.5 L 244 10.5 L 244 8 Z " /><path fill="rgb(201,144,118)" stroke="rgb(201,144,118)" stroke-width="1" opacity="0.047058823529411764" d="M 240 12 L 243 12.5 L 240 14.5 L 240 12 Z " /><path fill="rgb(201,144,118)" stroke="rgb(201,144,118)" stroke-width="1" opacity="0.047058823529411764" d="M 236 16 L 239 16.5 L 236 18.5 L 236 16 Z " /><path fill="rgb(201,144,118)" stroke="rgb(201,144,118)" stroke-width="1" opacity="0.047058823529411764" d="M 232 20 L 235 20.5 L 232 22.5 L 232 20 Z " /><path fill="rgb(201,144,118)" stroke="rgb(201,144,118)" stroke-width="1" opacity="0.047058823529411764" d="M 228 24 L 231 24.5 L 228 26.5 L 228 24 Z " /><path fill="rgb(201,144,118)" stroke="rgb(201,144,118)" stroke-width="1" opacity="0.047058823529411764" d="M 224 28 L 227 28.5 L 224 30.5 L 224 28 Z " /><path fill="rgb(201,144,118)" stroke="rgb(201,144,118)" stroke-width="1" opacity="0.047058823529411764" d="M 220 32 L 223 32.5 L 220 34.5 L 220 32 Z " /><path fill="rgb(201,144,118)" stroke="rgb(201,144,118)" stroke-width="1" opacity="0.047058823529411764" d="M 216 36 L 219 36.5 L 216 38.5 L 216 36 Z " /><path fill="rgb(201,144,118)" stroke="rgb(201,144,118)" stroke-width="1" opacity="0.047058823529411764" d="M 212 40 L 215 40.5 L 212 42.5 L 212 40 Z " /><path fill="rgb(201,144,118)" stroke="rgb(201,144,118)" stroke-width="1" opacity="0.047058823529411764" d="M 112 48 Q 117.2 45.9 116 50.5 L 114.5 50 Q 110.8 51 112 48 Z " /><path fill="rgb(201,144,118)" stroke="rgb(201,144,118)" stroke-width="1" opacity="0.047058823529411764" d="M 396 48 Q 401.2 46.3 400 50 L 396.5 51 L 396 48 Z " /><path fill="rgb(201,144,118)" stroke="rgb(201,144,118)" stroke-width="1" opacity="0.047058823529411764" d="M 196 56 L 199 56.5 L 196 58.5 L 196 56 Z " /><path fill="rgb(201,144,118)" stroke="rgb(201,144,118)" stroke-width="1" opacity="0.047058823529411764" d="M 396.5 56 L 423.5 84 Q 417.8 85.6 420 80 L 416 80 L 416 76 L 412 76 L 412 72 L 408 72 L 408 68 L 404 68 L 404 64 L 400 64 L 400 60 L 396 60 L 396.5 56 Z " /><path fill="rgb(201,144,118)" stroke="rgb(201,144,118)" stroke-width="1" opacity="0.047058823529411764" d="M 192 60 L 195 60.5 L 192 62.5 L 192 60 Z " /><path fill="rgb(201,144,118)" stroke="rgb(201,144,118)" stroke-width="1" opacity="0.047058823529411764" d="M 188 64 L 191 64.5 L 188 66.5 L 188 64 Z " /><path fill="rgb(201,144,118)" stroke="rgb(201,144,118)" stroke-width="1" opacity="0.047058823529411764" d="M 184 68 L 187 68.5 L 184 70.5 L 184 68 Z " /><path fill="rgb(201,144,118)" stroke="rgb(201,144,118)" stroke-width="1" opacity="0.047058823529411764" d="M 180 72 L 183 72.5 L 180 74.5 L 180 72 Z " /><path fill="rgb(201,144,118)" stroke="rgb(201,144,118)" stroke-width="1" opacity="0.047058823529411764" d="M 176 76 L 179 76.5 L 176 78.5 L 176 76 Z " /><path fill="rgb(201,144,118)" stroke="rgb(201,144,118)" stroke-width="1" opacity="0.047058823529411764" d="M 172 80 L 175 80.5 L 172 82.5 L 172 80 Z " /><path fill="rgb(201,144,118)" stroke="rgb(201,144,118)" stroke-width="1" opacity="0.047058823529411764" d="M 254.5 87 L 237.5 105 L 254.5 87 Z " /><path fill="rgb(201,144,118)" stroke="rgb(201,144,118)" stroke-width="1" opacity="0.047058823529411764" d="M 148 104 L 151 104.5 L 148 106.5 L 148 104 Z " /><path fill="rgb(201,144,118)" stroke="rgb(201,144,118)" stroke-width="1" opacity="0.047058823529411764" d="M 235.5 106 L 236 108 L 234 107.5 L 235.5 106 Z " /><path fill="rgb(201,144,118)" stroke="rgb(201,144,118)" stroke-width="1" opacity="0.047058823529411764" d="M 144 108 L 147 108.5 L 144 110.5 L 144 108 Z " /><path fill="rgb(201,144,118)" stroke="rgb(201,144,118)" stroke-width="1" opacity="0.047058823529411764" d="M 448.5 108 L 467.5 128 Q 461.8 129.6 464 124 L 460 124 L 460 120 L 456 120 L 456 116 L 452 116 L 452 112 L 448 112 L 448.5 108 Z " /><path fill="rgb(201,144,118)" stroke="rgb(201,144,118)" stroke-width="1" opacity="0.047058823529411764" d="M 231.5 110 L 232 112 L 230 111.5 L 231.5 110 Z " /><path fill="rgb(201,144,118)" stroke="rgb(201,144,118)" stroke-width="1" opacity="0.047058823529411764" d="M 140 112 L 143 112.5 L 140 114.5 L 140 112 Z " /><path fill="rgb(201,144,118)" stroke="rgb(201,144,118)" stroke-width="1" opacity="0.047058823529411764" d="M 227.5 114 L 228 116 L 226 115.5 L 227.5 114 Z " /><path fill="rgb(201,144,118)" stroke="rgb(201,144,118)" stroke-width="1" opacity="0.047058823529411764" d="M 136 116 L 139 116.5 L 136 118.5 L 136 116 Z " /><path fill="rgb(201,144,118)" stroke="rgb(201,144,118)" stroke-width="1" opacity="0.047058823529411764" d="M 223.5 118 L 224 120 L 222 119.5 L 223.5 118 Z " /><path fill="rgb(201,144,118)" stroke="rgb(201,144,118)" stroke-width="1" opacity="0.047058823529411764" d="M 132 120 L 135 120.5 L 132 122.5 L 132 120 Z " /><path fill="rgb(201,144,118)" stroke="rgb(201,144,118)" stroke-width="1" opacity="0.047058823529411764" d="M 219.5 122 L 220 124 L 218 123.5 L 219.5 122 Z " /><path fill="rgb(201,144,118)" stroke="rgb(201,144,118)" stroke-width="1" opacity="0.047058823529411764" d="M 128 124 L 131 124.5 L 128 126.5 L 128 124 Z " /><path fill="rgb(201,144,118)" stroke="rgb(201,144,118)" stroke-width="1" opacity="0.047058823529411764" d="M 215.5 126 L 216 128 L 214.5 128 L 188 154.5 Q 188.8 156.8 186.5 156 L 215.5 126 Z " /><path fill="rgb(201,144,118)" stroke="rgb(201,144,118)" stroke-width="1" opacity="0.047058823529411764" d="M 96 156 L 99 156.5 L 96 158.5 L 96 156 Z " /><path fill="rgb(201,144,118)" stroke="rgb(201,144,118)" stroke-width="1" opacity="0.047058823529411764" d="M 496.5 156 L 503.5 164 Q 497.8 165.6 500 160 L 496 160 L 496.5 156 Z " /><path fill="rgb(201,144,118)" stroke="rgb(201,144,118)" stroke-width="1" opacity="0.047058823529411764" d="M 183.5 158 L 184 160 L 182 159.5 L 183.5 158 Z " /><path fill="rgb(201,144,118)" stroke="rgb(201,144,118)" stroke-width="1" opacity="0.047058823529411764" d="M 92 160 L 95 160.5 L 92 162.5 L 92 160 Z " /><path fill="rgb(201,144,118)" stroke="rgb(201,144,118)" stroke-width="1" opacity="0.047058823529411764" d="M 179.5 162 L 180 164 L 178 163.5 L 179.5 162 Z " /><path fill="rgb(201,144,118)" stroke="rgb(201,144,118)" stroke-width="1" opacity="0.047058823529411764" d="M 88 164 L 91 164.5 L 88 166.5 L 88 164 Z " /><path fill="rgb(201,144,118)" stroke="rgb(201,144,118)" stroke-width="1" opacity="0.047058823529411764" d="M 0.5 165 L 4 167.5 L 0 168 L 0.5 165 Z " /><path fill="rgb(201,144,118)" stroke="rgb(201,144,118)" stroke-width="1" opacity="0.047058823529411764" d="M 175.5 166 L 176 168 L 174 167.5 L 175.5 166 Z " /><path fill="rgb(201,144,118)" stroke="rgb(201,144,118)" stroke-width="1" opacity="0.047058823529411764" d="M 84 168 L 87 168.5 L 84 170.5 L 84 168 Z " /><path fill="rgb(201,144,118)" stroke="rgb(201,144,118)" stroke-width="1" opacity="0.047058823529411764" d="M 171.5 170 L 172 172 L 170.5 172 L 136 206.5 Q 136.8 208.8 134.5 208 L 171.5 170 Z " /><path fill="rgb(201,144,118)" stroke="rgb(201,144,118)" stroke-width="1" opacity="0.047058823529411764" d="M 262.5 176 Q 264.8 175.3 264 177.5 L 262.5 176 Z " /><path fill="rgb(201,144,118)" stroke="rgb(201,144,118)" stroke-width="1" opacity="0.047058823529411764" d="M 266.5 180 Q 268.8 179.3 268 181.5 L 266.5 180 Z " /><path fill="rgb(201,144,118)" stroke="rgb(201,144,118)" stroke-width="1" opacity="0.047058823529411764" d="M 438 180 Q 441 178.8 440 182.5 L 438 181.5 L 438 180 Z " /><path fill="rgb(201,144,118)" stroke="rgb(201,144,118)" stroke-width="1" opacity="0.047058823529411764" d="M 270.5 184 Q 272.8 183.3 272 185.5 L 270.5 184 Z " /><path fill="rgb(201,144,118)" stroke="rgb(201,144,118)" stroke-width="1" opacity="0.047058823529411764" d="M 441.5 184 Q 445.3 182.8 444 186.5 L 441.5 184 Z " /><path fill="rgb(201,144,118)" stroke="rgb(201,144,118)" stroke-width="1" opacity="0.047058823529411764" d="M 274.5 188 Q 276.8 187.3 276 189.5 L 274.5 188 Z " /><path fill="rgb(201,144,118)" stroke="rgb(201,144,118)" stroke-width="1" opacity="0.047058823529411764" d="M 445.5 188 Q 449.3 186.8 448 190.5 L 445.5 188 Z " /><path fill="rgb(201,144,118)" stroke="rgb(201,144,118)" stroke-width="1" opacity="0.047058823529411764" d="M 278.5 192 Q 280.8 191.3 280 193.5 L 278.5 192 Z " /><path fill="rgb(201,144,118)" stroke="rgb(201,144,118)" stroke-width="1" opacity="0.047058823529411764" d="M 449.5 192 Q 453.3 190.8 452 194.5 L 449.5 192 Z " /><path fill="rgb(201,144,118)" stroke="rgb(201,144,118)" stroke-width="1" opacity="0.047058823529411764" d="M 282.5 196 Q 284.8 195.3 284 197.5 L 282.5 196 Z " /><path fill="rgb(201,144,118)" stroke="rgb(201,144,118)" stroke-width="1" opacity="0.047058823529411764" d="M 453.5 196 Q 457.3 194.8 456 198.5 L 453.5 196 Z " /><path fill="rgb(201,144,118)" stroke="rgb(201,144,118)" stroke-width="1" opacity="0.047058823529411764" d="M 286.5 200 Q 288.8 199.3 288 201.5 L 286.5 200 Z " /><path fill="rgb(201,144,118)" stroke="rgb(201,144,118)" stroke-width="1" opacity="0.047058823529411764" d="M 457.5 200 Q 461.3 198.8 460 202.5 L 457.5 200 Z " /><path fill="rgb(201,144,118)" stroke="rgb(201,144,118)" stroke-width="1" opacity="0.047058823529411764" d="M 48 204 L 51 204.5 L 48 206.5 L 48 204 Z " /><path fill="rgb(201,144,118)" stroke="rgb(201,144,118)" stroke-width="1" opacity="0.047058823529411764" d="M 291.5 205 L 300 212 L 299.5 214 L 291.5 205 Z " /><path fill="rgb(201,144,118)" stroke="rgb(201,144,118)" stroke-width="1" opacity="0.047058823529411764" d="M 44 208 L 47 208.5 L 44 210.5 L 44 208 Z " /><path fill="rgb(201,144,118)" stroke="rgb(201,144,118)" stroke-width="1" opacity="0.047058823529411764" d="M 131.5 210 L 132 212 L 130 211.5 L 131.5 210 Z " /><path fill="rgb(201,144,118)" stroke="rgb(201,144,118)" stroke-width="1" opacity="0.047058823529411764" d="M 127.5 214 L 87.5 255 L 127.5 214 Z " /><path fill="rgb(201,144,118)" stroke="rgb(201,144,118)" stroke-width="1" opacity="0.047058823529411764" d="M 302.5 216 Q 304.8 215.3 304 217.5 L 302.5 216 Z " /><path fill="rgb(201,144,118)" stroke="rgb(201,144,118)" stroke-width="1" opacity="0.047058823529411764" d="M 473.5 216 Q 477.3 214.8 476 218.5 L 473.5 216 Z " /><path fill="rgb(201,144,118)" stroke="rgb(201,144,118)" stroke-width="1" opacity="0.047058823529411764" d="M 306.5 220 Q 308.8 219.3 308 221.5 L 306.5 220 Z " /><path fill="rgb(201,144,118)" stroke="rgb(201,144,118)" stroke-width="1" opacity="0.047058823529411764" d="M 477.5 220 Q 481.3 218.8 480 222.5 L 477.5 220 Z " /><path fill="rgb(201,144,118)" stroke="rgb(201,144,118)" stroke-width="1" opacity="0.047058823529411764" d="M 310.5 224 Q 312.8 223.3 312 225.5 L 310.5 224 Z " /><path fill="rgb(201,144,118)" stroke="rgb(201,144,118)" stroke-width="1" opacity="0.047058823529411764" d="M 481.5 224 Q 485.3 222.8 484 226.5 L 481.5 224 Z " /><path fill="rgb(201,144,118)" stroke="rgb(201,144,118)" stroke-width="1" opacity="0.047058823529411764" d="M 314.5 228 Q 316.8 227.3 316 229.5 L 314.5 228 Z " /><path fill="rgb(201,144,118)" stroke="rgb(201,144,118)" stroke-width="1" opacity="0.047058823529411764" d="M 485.5 228 Q 489.3 226.8 488 230.5 L 485.5 228 Z " /><path fill="rgb(201,144,118)" stroke="rgb(201,144,118)" stroke-width="1" opacity="0.047058823529411764" d="M 318.5 232 Q 320.8 231.3 320 233.5 L 318.5 232 Z " /><path fill="rgb(201,144,118)" stroke="rgb(201,144,118)" stroke-width="1" opacity="0.047058823529411764" d="M 489.5 232 Q 493.3 230.8 492 234.5 L 489.5 232 Z " /><path fill="rgb(201,144,118)" stroke="rgb(201,144,118)" stroke-width="1" opacity="0.047058823529411764" d="M 404.5 234 L 405.5 236 Q 402.7 236.7 404.5 234 Z " /><path fill="rgb(201,144,118)" stroke="rgb(201,144,118)" stroke-width="1" opacity="0.047058823529411764" d="M 322.5 236 Q 324.8 235.3 324 237.5 L 322.5 236 Z " /><path fill="rgb(201,144,118)" stroke="rgb(201,144,118)" stroke-width="1" opacity="0.047058823529411764" d="M 493.5 236 Q 497.3 234.8 496 238.5 L 493.5 236 Z " /><path fill="rgb(201,144,118)" stroke="rgb(201,144,118)" stroke-width="1" opacity="0.047058823529411764" d="M 408.5 238 L 409.5 240 Q 406.7 240.7 408.5 238 Z " /><path fill="rgb(201,144,118)" stroke="rgb(201,144,118)" stroke-width="1" opacity="0.047058823529411764" d="M 326.5 240 Q 328.8 239.3 328 241.5 L 326.5 240 Z " /><path fill="rgb(201,144,118)" stroke="rgb(201,144,118)" stroke-width="1" opacity="0.047058823529411764" d="M 497.5 240 Q 501.3 238.8 500 242.5 L 497.5 240 Z " /><path fill="rgb(201,144,118)" stroke="rgb(201,144,118)" stroke-width="1" opacity="0.047058823529411764" d="M 412.5 242 L 413.5 244 Q 410.7 244.7 412.5 242 Z " /><path fill="rgb(201,144,118)" stroke="rgb(201,144,118)" stroke-width="1" opacity="0.047058823529411764" d="M 330.5 244 Q 332.8 243.3 332 245.5 L 330.5 244 Z " /><path fill="rgb(201,144,118)" stroke="rgb(201,144,118)" stroke-width="1" opacity="0.047058823529411764" d="M 501.5 244 Q 505.3 242.8 504 246.5 L 501.5 244 Z " /><path fill="rgb(201,144,118)" stroke="rgb(201,144,118)" stroke-width="1" opacity="0.047058823529411764" d="M 416.5 246 L 417.5 248 Q 414.7 248.7 416.5 246 Z " /><path fill="rgb(201,144,118)" stroke="rgb(201,144,118)" stroke-width="1" opacity="0.047058823529411764" d="M 334.5 248 Q 336.8 247.3 336 249.5 L 334.5 248 Z " /><path fill="rgb(201,144,118)" stroke="rgb(201,144,118)" stroke-width="1" opacity="0.047058823529411764" d="M 505.5 248 Q 509.7 246.7 508 251.5 L 507 251.5 L 505.5 248 Z " /><path fill="rgb(201,144,118)" stroke="rgb(201,144,118)" stroke-width="1" opacity="0.047058823529411764" d="M 420.5 250 L 421.5 252 Q 418.7 252.7 420.5 250 Z " /><path fill="rgb(201,144,118)" stroke="rgb(201,144,118)" stroke-width="1" opacity="0.047058823529411764" d="M 338.5 252 Q 340.8 251.3 340 253.5 L 338.5 252 Z " /><path fill="rgb(201,144,118)" stroke="rgb(201,144,118)" stroke-width="1" opacity="0.047058823529411764" d="M 4.5 254 L 5.5 256 Q 2.7 256.7 4.5 254 Z " /><path fill="rgb(201,144,118)" stroke="rgb(201,144,118)" stroke-width="1" opacity="0.047058823529411764" d="M 507.5 254 L 508 256 L 506 255.5 L 507.5 254 Z " /><path fill="rgb(201,144,118)" stroke="rgb(201,144,118)" stroke-width="1" opacity="0.047058823529411764" d="M 7.5 256 L 84 256.5 L 7.5 257 L 7.5 256 Z " /><path fill="rgb(201,144,118)" stroke="rgb(201,144,118)" stroke-width="1" opacity="0.047058823529411764" d="M 342.5 256 Q 344.8 255.3 344 257.5 L 342.5 256 Z " /><path fill="rgb(201,144,118)" stroke="rgb(201,144,118)" stroke-width="1" opacity="0.047058823529411764" d="M 445.5 256 L 505 256.5 L 445.5 257 L 445.5 256 Z " /><path fill="rgb(201,144,118)" stroke="rgb(201,144,118)" stroke-width="1" opacity="0.047058823529411764" d="M 346.5 260 Q 348.8 259.3 348 261.5 L 346.5 260 Z " /><path fill="rgb(201,144,118)" stroke="rgb(201,144,118)" stroke-width="1" opacity="0.047058823529411764" d="M 350.5 264 Q 352.8 263.3 352 265.5 L 350.5 264 Z " /><path fill="rgb(201,144,118)" stroke="rgb(201,144,118)" stroke-width="1" opacity="0.047058823529411764" d="M 354.5 268 Q 356.8 267.3 356 269.5 L 354.5 268 Z " /><path fill="rgb(201,144,118)" stroke="rgb(201,144,118)" stroke-width="1" opacity="0.047058823529411764" d="M 358.5 272 Q 360.8 271.3 360 273.5 L 358.5 272 Z " /><path fill="rgb(201,144,118)" stroke="rgb(201,144,118)" stroke-width="1" opacity="0.047058823529411764" d="M 362.5 276 Q 364.8 275.3 364 277.5 L 362.5 276 Z " /><path fill="rgb(201,144,118)" stroke="rgb(201,144,118)" stroke-width="1" opacity="0.047058823529411764" d="M 366.5 280 Q 368.8 279.3 368 281.5 L 366.5 280 Z " /><path fill="rgb(201,144,118)" stroke="rgb(201,144,118)" stroke-width="1" opacity="0.047058823529411764" d="M 370.5 284 Q 372.8 283.3 372 285.5 L 370.5 284 Z " /><path fill="rgb(201,144,118)" stroke="rgb(201,144,118)" stroke-width="1" opacity="0.047058823529411764" d="M 374.5 288 Q 376.8 287.3 376 289.5 L 374.5 288 Z " /><path fill="rgb(201,144,118)" stroke="rgb(201,144,118)" stroke-width="1" opacity="0.047058823529411764" d="M 378.5 292 Q 380.8 291.3 380 293.5 L 378.5 292 Z " /><path fill="rgb(201,144,118)" stroke="rgb(201,144,118)" stroke-width="1" opacity="0.047058823529411764" d="M 382.5 296 Q 384.8 295.3 384 297.5 L 382.5 296 Z " /><path fill="rgb(201,144,118)" stroke="rgb(201,144,118)" stroke-width="1" opacity="0.047058823529411764" d="M 394.5 308 Q 396.8 307.3 396 309.5 L 394.5 308 Z " /><path fill="rgb(201,144,118)" stroke="rgb(201,144,118)" stroke-width="1" opacity="0.047058823529411764" d="M 398.5 312 Q 400.8 311.3 400 313.5 L 398.5 312 Z " /><path fill="rgb(201,144,118)" stroke="rgb(201,144,118)" stroke-width="1" opacity="0.047058823529411764" d="M 402.5 316 Q 404.8 315.3 404 317.5 L 402.5 316 Z " /><path fill="rgb(201,144,118)" stroke="rgb(201,144,118)" stroke-width="1" opacity="0.047058823529411764" d="M 406.5 320 Q 408.8 319.3 408 321.5 L 406.5 320 Z " /><path fill="rgb(201,144,118)" stroke="rgb(201,144,118)" stroke-width="1" opacity="0.047058823529411764" d="M 410.5 324 Q 412.8 323.3 412 325.5 L 410.5 324 Z " /><path fill="rgb(201,144,118)" stroke="rgb(201,144,118)" stroke-width="1" opacity="0.047058823529411764" d="M 414.5 328 Q 416.8 327.3 416 329.5 L 414.5 328 Z " /><path fill="rgb(201,144,118)" stroke="rgb(201,144,118)" stroke-width="1" opacity="0.047058823529411764" d="M 418.5 332 Q 420.8 331.3 420 333.5 L 418.5 332 Z " /><path fill="rgb(201,144,118)" stroke="rgb(201,144,118)" stroke-width="1" opacity="0.047058823529411764" d="M 422.5 336 Q 424.8 335.3 424 337.5 L 422.5 336 Z " /><path fill="rgb(201,144,118)" stroke="rgb(201,144,118)" stroke-width="1" opacity="0.047058823529411764" d="M 426.5 340 Q 428.8 339.3 428 341.5 L 426.5 340 Z " /><path fill="rgb(201,144,118)" stroke="rgb(201,144,118)" stroke-width="1" opacity="0.047058823529411764" d="M 442.5 356 Q 444.8 355.3 444 357.5 L 442.5 356 Z " /><path fill="rgb(201,144,118)" stroke="rgb(201,144,118)" stroke-width="1" opacity="0.047058823529411764" d="M 446.5 360 Q 448.8 359.3 448 361.5 L 446.5 360 Z " /><path fill="rgb(201,144,118)" stroke="rgb(201,144,118)" stroke-width="1" opacity="0.047058823529411764" d="M 450.5 364 Q 452.8 363.3 452 365.5 L 450.5 364 Z " /><path fill="rgb(201,144,118)" stroke="rgb(201,144,118)" stroke-width="1" opacity="0.047058823529411764" d="M 454.5 368 Q 456.8 367.3 456 369.5 L 454.5 368 Z " /><path fill="rgb(201,144,118)" stroke="rgb(201,144,118)" stroke-width="1" opacity="0.047058823529411764" d="M 458.5 372 Q 460.8 371.3 460 373.5 L 458.5 372 Z " /><path fill="rgb(201,144,118)" stroke="rgb(201,144,118)" stroke-width="1" opacity="0.047058823529411764" d="M 462.5 376 Q 464.8 375.3 464 377.5 L 462.5 376 Z " /><path fill="rgb(201,144,118)" stroke="rgb(201,144,118)" stroke-width="1" opacity="0.047058823529411764" d="M 466.5 380 Q 468.8 379.3 468 381.5 L 466.5 380 Z " /><path fill="rgb(201,144,118)" stroke="rgb(201,144,118)" stroke-width="1" opacity="0.047058823529411764" d="M 494.5 408 Q 496.8 407.3 496 409.5 L 494.5 408 Z " /><path fill="rgb(201,144,118)" stroke="rgb(201,144,118)" stroke-width="1" opacity="0.047058823529411764" d="M 498.5 412 Q 500.8 411.3 500 413.5 L 498.5 412 Z " /><path fill="rgb(201,144,118)" stroke="rgb(201,144,118)" stroke-width="1" opacity="0.047058823529411764" d="M 502.5 416 Q 504.8 415.3 504 417.5 L 502.5 416 Z " /><path fill="rgb(201,144,118)" stroke="rgb(201,144,118)" stroke-width="1" opacity="0.047058823529411764" d="M 506.5 420 Q 508.8 419.3 508 421.5 L 506.5 420 Z " /><path fill="rgb(201,144,118)" stroke="rgb(201,144,118)" stroke-width="1" opacity="0.047058823529411764" d="M 507.5 425 L 508 428 L 504 427.5 L 507.5 425 Z " /><path fill="rgb(201,144,118)" stroke="rgb(201,144,118)" stroke-width="1" opacity="0.047058823529411764" d="M 12.5 427 L 84 427.5 L 12.5 428 L 12.5 427 Z " /><path fill="rgb(201,144,118)" stroke="rgb(201,144,118)" stroke-width="1" opacity="0.047058823529411764" d="M 432.5 427 L 500 427.5 L 432.5 428 L 432.5 427 Z " /><path fill="rgb(201,144,118)" stroke="rgb(201,144,118)" stroke-width="1" opacity="0.047058823529411764" d="M 172 428 Q 174.7 426.9 174 429.5 L 175 432 Q 170.1 433.6 172 428 Z " /><path fill="rgb(201,144,118)" stroke="rgb(201,144,118)" stroke-width="1" opacity="0.047058823529411764" d="M 338 428 Q 341.7 426.8 340 432 Q 336.3 433.5 337 430.5 L 338 428 Z " /><path fill="rgb(201,144,118)" stroke="rgb(201,144,118)" stroke-width="1" opacity="0.047058823529411764" d="M 200.5 457 L 202.5 460 Q 198.1 461.1 200.5 457 Z " /><path fill="rgb(254,152,0)" stroke="rgb(254,152,0)" stroke-width="1" opacity="0.00392156862745098" d="M 248 4 L 251 4.5 L 248 6.5 L 248 4 Z " /><path fill="rgb(254,152,0)" stroke="rgb(254,152,0)" stroke-width="1" opacity="0.00392156862745098" d="M 504 48 Q 509.2 45.9 508 50.5 L 506.5 50 Q 502.8 51 504 48 Z " /><path fill="rgb(254,152,0)" stroke="rgb(254,152,0)" stroke-width="1" opacity="0.00392156862745098" d="M 200 52 L 203 52.5 L 200 54.5 L 200 52 Z " /><path fill="rgb(254,152,0)" stroke="rgb(254,152,0)" stroke-width="1" opacity="0.00392156862745098" d="M 115.5 56 L 116 60 L 112 60 L 112 64 L 108 64 L 108 68 L 104 68 L 104 72 L 100 72 L 100 76 L 96 76 L 96 80 L 92 80 L 92 84 L 88 84 Q 90.2 89.6 84.5 88 L 115.5 56 Z " /><path fill="rgb(254,152,0)" stroke="rgb(254,152,0)" stroke-width="1" opacity="0.00392156862745098" d="M 428.5 88 L 447.5 108 Q 441.8 109.6 444 104 L 440 104 L 440 100 L 436 100 L 436 96 L 432 96 L 432 92 L 428 92 L 428.5 88 Z " /><path fill="rgb(254,152,0)" stroke="rgb(254,152,0)" stroke-width="1" opacity="0.00392156862745098" d="M 63.5 108 L 64 112 L 60 112 L 60 116 L 56 116 L 56 120 L 52 120 L 52 124 L 48 124 Q 50.2 129.6 44.5 128 L 63.5 108 Z " /><path fill="rgb(254,152,0)" stroke="rgb(254,152,0)" stroke-width="1" opacity="0.00392156862745098" d="M 233.5 108 Q 238.1 106.8 236 112 L 232 112 L 232 116 L 228 116 L 228 120 L 224 120 L 224 124 L 220 124 Q 222 130 216 128 L 217.5 124 Q 221.3 125.3 220 121.5 L 224 120 L 225.5 116 Q 229.3 117.3 228 113.5 L 232 112 L 233.5 108 Z " /><path fill="rgb(254,152,0)" stroke="rgb(254,152,0)" stroke-width="1" opacity="0.00392156862745098" d="M 472.5 132 L 491.5 152 Q 485.8 153.6 488 148 L 484 148 L 484 144 L 480 144 L 480 140 L 476 140 L 476 136 L 472 136 L 472.5 132 Z " /><path fill="rgb(254,152,0)" stroke="rgb(254,152,0)" stroke-width="1" opacity="0.00392156862745098" d="M 15.5 156 L 16 160 L 12 160 Q 14.2 165.6 8.5 164 L 15.5 156 Z " /><path fill="rgb(254,152,0)" stroke="rgb(254,152,0)" stroke-width="1" opacity="0.00392156862745098" d="M 185.5 156 Q 190.1 154.8 188 160 L 184 160 L 184 164 L 180 164 L 180 168 L 176 168 Q 178 174 172 172 L 173.5 168 Q 177.3 169.3 176 165.5 L 180 164 L 181.5 160 Q 185.3 161.3 184 157.5 L 185.5 156 Z " /><path fill="rgb(254,152,0)" stroke="rgb(254,152,0)" stroke-width="1" opacity="0.00392156862745098" d="M 504.5 164 L 508 166 Q 509.2 169.7 504 168 L 504.5 164 Z " /><path fill="rgb(254,152,0)" stroke="rgb(254,152,0)" stroke-width="1" opacity="0.00392156862745098" d="M 425.5 168 Q 429.3 166.8 428 170.5 L 425.5 168 Z " /><path fill="rgb(254,152,0)" stroke="rgb(254,152,0)" stroke-width="1" opacity="0.00392156862745098" d="M 264 176 L 268 176 L 268 180 L 272 180 L 272 184 L 276 184 L 276 188 L 280 188 L 280 192 L 284 192 L 284 196 L 288 196 L 288 200 Q 294 198 292 204 L 288 202.5 Q 289.3 198.8 285.5 200 L 284 196 L 280 194.5 Q 281.3 190.8 277.5 192 L 276 188 L 272 186.5 Q 273.3 182.8 269.5 184 L 268 180 L 264 178.5 L 264 176 Z " /><path fill="rgb(254,152,0)" stroke="rgb(254,152,0)" stroke-width="1" opacity="0.00392156862745098" d="M 366.5 196 L 368 200 Q 364.2 201.2 366.5 196 Z " /><path fill="rgb(254,152,0)" stroke="rgb(254,152,0)" stroke-width="1" opacity="0.00392156862745098" d="M 369 200 L 372 201.5 Q 370.8 205.3 374.5 204 L 377.5 208 L 372 208 L 372 204 L 368 204 L 368 202.5 L 369 200 Z " /><path fill="rgb(254,152,0)" stroke="rgb(254,152,0)" stroke-width="1" opacity="0.00392156862745098" d="M 133.5 208 Q 138.1 206.8 136 212 L 132 212 Q 134 218 128 216 L 129.5 212 Q 133.3 213.3 132 209.5 L 133.5 208 Z " /><path fill="rgb(254,152,0)" stroke="rgb(254,152,0)" stroke-width="1" opacity="0.00392156862745098" d="M 300 212 L 304 212 L 304 216 L 308 216 L 308 220 L 312 220 L 312 224 L 316 224 L 316 228 L 320 228 L 320 232 L 324 232 L 324 236 L 328 236 L 328 240 L 332 240 L 332 244 L 336 244 L 336 248 L 340 248 L 340 252 L 344 252 L 344 256 L 348 256 L 348 260 L 352 260 L 352 264 L 356 264 L 356 268 L 360 268 L 360 272 L 364 272 L 364 276 L 368 276 L 368 280 L 372 280 L 372 284 L 376 284 Q 374 290 380 288 L 380 292 L 384 292 L 384 296 L 380 294.5 Q 381.3 290.8 377.5 292 L 376 288 L 372 286.5 Q 373.3 282.8 369.5 284 L 368 280 L 364 278.5 Q 365.3 274.8 361.5 276 L 360 272 L 356 270.5 Q 357.3 266.8 353.5 268 L 352 264 L 348 262.5 Q 349.3 258.8 345.5 260 L 344 256 L 340 254.5 Q 341.3 250.8 337.5 252 L 336 248 L 332 246.5 Q 333.3 242.8 329.5 244 L 328 240 L 324 238.5 Q 325.3 234.8 321.5 236 L 320 232 L 316 230.5 Q 317.3 226.8 313.5 228 L 312 224 L 308 222.5 Q 309.3 218.8 305.5 220 L 304 216 L 300 214.5 L 300 212 Z " /><path fill="rgb(254,152,0)" stroke="rgb(254,152,0)" stroke-width="1" opacity="0.00392156862745098" d="M 469.5 212 Q 473.3 210.8 472 214.5 L 469.5 212 Z " /><path fill="rgb(254,152,0)" stroke="rgb(254,152,0)" stroke-width="1" opacity="0.00392156862745098" d="M 384 216 L 388 217.5 Q 386.8 221.3 390.5 220 L 392 224 L 396 225.5 Q 394.8 229.3 398.5 228 L 400 232 L 404 233.5 Q 402.8 237.3 406.5 236 L 408 240 L 412 241.5 Q 410.8 245.3 414.5 244 L 416 248 L 420 249.5 Q 418.8 253.3 422.5 252 L 424 256 L 420 256 L 420 252 L 416 252 L 416 248 L 412 248 L 412 244 L 408 244 L 408 240 L 404 240 L 404 236 L 400 236 L 400 232 L 396 232 L 396 228 L 392 228 L 392 224 L 388 224 L 388 220 Q 382 222 384 216 Z " /><path fill="rgb(254,152,0)" stroke="rgb(254,152,0)" stroke-width="1" opacity="0.00392156862745098" d="M 300.5 301 L 302.5 304 Q 298.1 305.1 300.5 301 Z " /><path fill="rgb(254,152,0)" stroke="rgb(254,152,0)" stroke-width="1" opacity="0.00392156862745098" d="M 120 304 L 122 304.5 L 120 305.5 L 120 304 Z " /><path fill="rgb(254,152,0)" stroke="rgb(254,152,0)" stroke-width="1" opacity="0.00392156862745098" d="M 392 304 L 396 304 L 396 308 L 400 308 L 400 312 L 404 312 L 404 316 L 408 316 L 408 320 L 412 320 L 412 324 L 416 324 L 416 328 L 420 328 L 420 332 L 424 332 L 424 336 Q 430 334 428 340 L 424 338.5 Q 425.3 334.8 421.5 336 L 420 332 L 416 330.5 Q 417.3 326.8 413.5 328 L 412 324 L 408 322.5 Q 409.3 318.8 405.5 320 L 404 316 L 400 314.5 Q 401.3 310.8 397.5 312 L 396 308 L 392 306.5 L 392 304 Z " /><path fill="rgb(254,152,0)" stroke="rgb(254,152,0)" stroke-width="1" opacity="0.00392156862745098" d="M 252.5 344 L 256 344.5 L 252.5 345 L 252.5 344 Z " /><path fill="rgb(254,152,0)" stroke="rgb(254,152,0)" stroke-width="1" opacity="0.00392156862745098" d="M 344.5 345 L 346.5 348 Q 342.1 349.1 344.5 345 Z " /><path fill="rgb(254,152,0)" stroke="rgb(254,152,0)" stroke-width="1" opacity="0.00392156862745098" d="M 348.5 349 L 350.5 352 Q 346.1 353.1 348.5 349 Z " /><path fill="rgb(254,152,0)" stroke="rgb(254,152,0)" stroke-width="1" opacity="0.00392156862745098" d="M 352.5 353 L 354.5 356 Q 350.1 357.1 352.5 353 Z " /><path fill="rgb(254,152,0)" stroke="rgb(254,152,0)" stroke-width="1" opacity="0.00392156862745098" d="M 236 356 L 240 356.5 L 212 383.5 Q 210.4 377.8 216 380 L 216 376 L 220 376 L 220 372 L 224 372 L 224 368 L 228 368 L 228 364 L 232 364 L 232 360 L 236 360 L 236 356 Z " /><path fill="rgb(254,152,0)" stroke="rgb(254,152,0)" stroke-width="1" opacity="0.00392156862745098" d="M 444 356 L 448 356 L 448 360 L 452 360 L 452 364 L 456 364 L 456 368 L 460 368 L 460 372 L 464 372 L 464 376 L 468 376 L 468 380 Q 474 378 472 384 L 468 382.5 Q 469.3 378.8 465.5 380 L 464 376 L 460 374.5 Q 461.3 370.8 457.5 372 L 456 368 L 452 366.5 Q 453.3 362.8 449.5 364 L 448 360 L 444 358.5 L 444 356 Z " /><path fill="rgb(254,152,0)" stroke="rgb(254,152,0)" stroke-width="1" opacity="0.00392156862745098" d="M 143.5 369 L 144 372 L 141 371.5 L 143.5 369 Z " /><path fill="rgb(254,152,0)" stroke="rgb(254,152,0)" stroke-width="1" opacity="0.00392156862745098" d="M 139.5 373 L 140 376 L 137 375.5 L 139.5 373 Z " /><path fill="rgb(254,152,0)" stroke="rgb(254,152,0)" stroke-width="1" opacity="0.00392156862745098" d="M 135.5 377 L 136 380 L 133 379.5 L 135.5 377 Z " /><path fill="rgb(254,152,0)" stroke="rgb(254,152,0)" stroke-width="1" opacity="0.00392156862745098" d="M 131.5 381 L 132 384 L 129 383.5 L 131.5 381 Z " /><path fill="rgb(254,152,0)" stroke="rgb(254,152,0)" stroke-width="1" opacity="0.00392156862745098" d="M 40 384 L 42 384.5 L 40 385.5 L 40 384 Z " /><path fill="rgb(254,152,0)" stroke="rgb(254,152,0)" stroke-width="1" opacity="0.00392156862745098" d="M 384.5 385 L 386.5 388 Q 382.1 389.1 384.5 385 Z " /><path fill="rgb(254,152,0)" stroke="rgb(254,152,0)" stroke-width="1" opacity="0.00392156862745098" d="M 388.5 389 L 390.5 392 Q 386.1 393.1 388.5 389 Z " /><path fill="rgb(254,152,0)" stroke="rgb(254,152,0)" stroke-width="1" opacity="0.00392156862745098" d="M 392.5 393 L 394.5 396 Q 390.1 397.1 392.5 393 Z " /><path fill="rgb(254,152,0)" stroke="rgb(254,152,0)" stroke-width="1" opacity="0.00392156862745098" d="M 396.5 397 L 398.5 400 Q 394.1 401.1 396.5 397 Z " /><path fill="rgb(254,152,0)" stroke="rgb(254,152,0)" stroke-width="1" opacity="0.00392156862745098" d="M 400.5 401 L 402.5 404 Q 398.1 405.1 400.5 401 Z " /><path fill="rgb(254,152,0)" stroke="rgb(254,152,0)" stroke-width="1" opacity="0.00392156862745098" d="M 107.5 405 L 108 408 L 105 407.5 L 107.5 405 Z " /><path fill="rgb(254,152,0)" stroke="rgb(254,152,0)" stroke-width="1" opacity="0.00392156862745098" d="M 184 408 L 188 408.5 L 176 419.5 Q 174.4 413.8 180 416 L 180 412 L 184 412 L 184 408 Z " /><path fill="rgb(254,152,0)" stroke="rgb(254,152,0)" stroke-width="1" opacity="0.00392156862745098" d="M 496 408 L 500 408 L 500 412 L 504 412 L 504 416 Q 510 414 508 420 L 504 418.5 Q 505.3 414.8 501.5 416 L 500 412 L 496 410.5 L 496 408 Z " /><path fill="rgb(254,152,0)" stroke="rgb(254,152,0)" stroke-width="1" opacity="0.00392156862745098" d="M 103.5 409 L 104 412 L 101 411.5 L 103.5 409 Z " /><path fill="rgb(254,152,0)" stroke="rgb(254,152,0)" stroke-width="1" opacity="0.00392156862745098" d="M 99.5 413 L 100 416 L 97 415.5 L 99.5 413 Z " /><path fill="rgb(254,152,0)" stroke="rgb(254,152,0)" stroke-width="1" opacity="0.00392156862745098" d="M 95.5 417 L 96 420 L 93 419.5 L 95.5 417 Z " /><path fill="rgb(254,152,0)" stroke="rgb(254,152,0)" stroke-width="1" opacity="0.00392156862745098" d="M 91.5 421 L 92 424 L 89 423.5 L 91.5 421 Z " /><path fill="rgb(254,152,0)" stroke="rgb(254,152,0)" stroke-width="1" opacity="0.00392156862745098" d="M 172 424 Q 175.7 422.8 174 428 Q 170.3 429.2 172 424 Z " /><path fill="rgb(254,152,0)" stroke="rgb(254,152,0)" stroke-width="1" opacity="0.00392156862745098" d="M 87.5 425 L 88 428 L 84 427.5 L 87.5 425 Z " /><path fill="rgb(254,152,0)" stroke="rgb(254,152,0)" stroke-width="1" opacity="0.00392156862745098" d="M 8.5 427 L 12 427.5 L 8.5 428 L 8.5 427 Z " /><path fill="rgb(254,152,0)" stroke="rgb(254,152,0)" stroke-width="1" opacity="0.00392156862745098" d="M 428.5 427 L 432 427.5 L 428.5 428 L 428.5 427 Z " /><path fill="rgb(254,152,0)" stroke="rgb(254,152,0)" stroke-width="1" opacity="0.00392156862745098" d="M 500.5 427 L 504 427.5 L 500.5 428 L 500.5 427 Z " /><path fill="rgb(254,152,0)" stroke="rgb(254,152,0)" stroke-width="1" opacity="0.00392156862745098" d="M 212.5 469 L 214.5 472 Q 210.1 473.1 212.5 469 Z " /><path fill="rgb(134,111,79)" stroke="rgb(134,111,79)" stroke-width="1" opacity="0.996078431372549" d="M 8.5 50 L 112.5 50 L 116 52.5 L 116 54.5 L 5.5 165 L 2.5 166 L 0 163.5 L 0 57.5 L 3.5 52 L 8.5 50 Z " /><path fill="rgb(134,111,79)" stroke="rgb(134,111,79)" stroke-width="1" opacity="0.996078431372549" d="M 399.5 50 L 503.5 50 L 511 54.5 L 512 57.5 L 512 163.5 L 508.5 166 L 396 54.5 L 397.5 51 L 399.5 50 Z " /><path fill="rgb(134,111,79)" stroke="rgb(134,111,79)" stroke-width="1" opacity="0.996078431372549" d="M 344.5 89 L 444 188.5 L 444 256 L 428.5 256 L 426.5 255 L 344 172.5 L 344.5 89 Z " /><path fill="rgb(134,111,79)" stroke="rgb(134,111,79)" stroke-width="1" opacity="0.996078431372549" d="M 168.5 259 L 169 342.5 L 86.5 425 L 84.5 426 L 68 426 L 68 360.5 L 69 358.5 L 168.5 259 Z " /><path fill="rgb(134,111,79)" stroke="rgb(134,111,79)" stroke-width="1" opacity="0.996078431372549" d="M 255.5 345 L 261.5 347 L 336 421.5 L 337 430.5 L 260.5 507 L 253.5 508 L 175 430.5 L 176 421.5 L 189.5 408 L 192 406.5 L 193.5 404 L 196 402.5 L 197.5 400 L 200 398.5 L 201.5 396 L 204 394.5 L 205.5 392 L 208 390.5 L 209.5 388 L 212 386.5 L 241.5 356 L 244 354.5 L 245.5 352 L 248 350.5 L 249.5 348 L 255.5 345 Z " /></svg>